<svg xmlns="http://www.w3.org/2000/svg" width="784" height="92" viewBox="0 0 784 92" fill="none"><g clip-path="url(#clip0_947:10345)"><mask id="mask0_947:10345" style="mask-type:alpha" maskUnits="userSpaceOnUse" x="-59" y="-597" width="1234" height="689"><rect x="1174.97" y="92" width="1233.95" height="688.951" transform="rotate(-180 1174.97 92)" fill="#818181"></rect></mask><g mask="url(#mask0_947:10345)"><path d="M1681.99 -272.578L490.422 1073.52" stroke="#F9F9F9" stroke-width="52.94" stroke-miterlimit="10"></path><path d="M1650.98 -307.613L459.41 1038.49" stroke="#F9F9F9" stroke-width="50.48" stroke-miterlimit="10"></path><path d="M1619.96 -342.648L428.397 1003.46" stroke="#F9F9F9" stroke-width="48.02" stroke-miterlimit="10"></path><path d="M1588.96 -377.682L397.384 968.426" stroke="#F9F9F9" stroke-width="45.56" stroke-miterlimit="10"></path><path d="M1557.95 -412.717L366.371 933.391" stroke="#F9F9F9" stroke-width="43.11" stroke-miterlimit="10"></path><path d="M1526.93 -447.742L335.357 898.356" stroke="#F9F9F9" stroke-width="40.65" stroke-miterlimit="10"></path><path d="M1495.92 -482.777L304.354 863.321" stroke="#F9F9F9" stroke-width="38.19" stroke-miterlimit="10"></path><path d="M1464.91 -517.811L273.341 828.286" stroke="#F9F9F9" stroke-width="35.73" stroke-miterlimit="10"></path><path d="M1433.9 -552.846L242.328 793.252" stroke="#F9F9F9" stroke-width="33.28" stroke-miterlimit="10"></path><path d="M1402.88 -587.881L211.316 758.217" stroke="#F9F9F9" stroke-width="30.82" stroke-miterlimit="10"></path><path d="M1371.87 -622.916L180.303 723.182" stroke="#F9F9F9" stroke-width="28.36" stroke-miterlimit="10"></path><path d="M1340.86 -657.95L149.29 688.147" stroke="#F9F9F9" stroke-width="25.9" stroke-miterlimit="10"></path><path d="M1309.84 -692.985L118.277 653.112" stroke="#F9F9F9" stroke-width="23.44" stroke-miterlimit="10"></path><path d="M1278.83 -728.02L87.265 618.078" stroke="#F9F9F9" stroke-width="20.99" stroke-miterlimit="10"></path><path d="M1247.82 -763.055L56.2514 583.043" stroke="#F9F9F9" stroke-width="18.53" stroke-miterlimit="10"></path><path d="M1216.81 -798.09L25.2395 548.008" stroke="#F9F9F9" stroke-width="16.07" stroke-miterlimit="10"></path><path d="M1185.79 -833.124L-5.77407 512.984" stroke="#F9F9F9" stroke-width="13.61" stroke-miterlimit="10"></path><path d="M1154.79 -868.159L-36.7872 477.949" stroke="#F9F9F9" stroke-width="11.15" stroke-miterlimit="10"></path><path d="M1123.78 -903.184L-67.8002 442.914" stroke="#F9F9F9" stroke-width="8.7" stroke-miterlimit="10"></path><path d="M1092.76 -938.219L-98.8033 407.879" stroke="#F9F9F9" stroke-width="6.24" stroke-miterlimit="10"></path><path d="M1061.75 -973.253L-129.816 372.844" stroke="#F9F9F9" stroke-width="3.78" stroke-miterlimit="10"></path><path d="M1030.74 -1008.29L-160.829 337.81" stroke="#F9F9F9" stroke-width="1.32" stroke-miterlimit="10"></path></g></g><defs><clipPath id="clip0_947:10345"><rect width="784" height="91.9999" fill="white" transform="translate(784 92) rotate(-180)"></rect></clipPath></defs></svg>