<?xml version="1.0" encoding="UTF-8"?><svg id="Calque_2" xmlns="http://www.w3.org/2000/svg" xmlns:xlink="http://www.w3.org/1999/xlink" viewBox="0 0 435.97 380.07"><defs><style>.cls-1{stroke-width:17.31px;}.cls-1,.cls-2,.cls-3,.cls-4,.cls-5,.cls-6,.cls-7,.cls-8,.cls-9,.cls-10{fill:none;}.cls-1,.cls-2,.cls-3,.cls-4,.cls-6,.cls-7,.cls-8,.cls-9,.cls-10{stroke:#ef7c2b;stroke-miterlimit:10;}.cls-2{stroke-width:12.37px;}.cls-11{fill:#c4c4c4;}.cls-3{stroke-width:10.4px;}.cls-4{stroke-width:15.33px;}.cls-5{mask:url(#mask);}.cls-6{stroke-width:16.32px;}.cls-7{stroke-width:13.36px;}.cls-8{stroke-width:14.34px;}.cls-9{stroke-width:18.29px;}.cls-10{stroke-width:11.38px;}</style><mask id="mask" x="0" y="0" width="435.97" height="380.07" maskUnits="userSpaceOnUse"><g id="mask0_1102:12556"><rect class="cls-11" x="141.8" y="120.58" width="136" height="133"/></g></mask></defs><g id="Calque_1-2"><g class="cls-5"><path class="cls-9" d="m160.39,373.01l154.84-127.65"/><path class="cls-1" d="m140.76,356.82l154.84-127.65"/><path class="cls-6" d="m121.12,340.63l154.83-127.65"/><path class="cls-4" d="m101.48,324.44l154.83-127.65"/><path class="cls-8" d="m81.85,308.26l154.83-127.65"/><path class="cls-7" d="m62.21,292.07l154.83-127.65"/><path class="cls-2" d="m42.58,275.88l154.83-127.65"/><path class="cls-10" d="m22.94,259.69l154.83-127.65"/><path class="cls-3" d="m3.31,243.5l154.83-127.65"/><path class="cls-6" d="m275.95,212.99l154.84-127.65"/><path class="cls-4" d="m256.31,196.8l154.84-127.65"/><path class="cls-8" d="m236.68,180.61l154.84-127.65"/><path class="cls-7" d="m217.04,164.42l154.84-127.65"/><path class="cls-2" d="m197.4,148.23L352.24,20.58"/><path class="cls-10" d="m177.77,132.04L332.6,4.39"/></g></g></svg>